<?xml version="1.0" encoding="utf-8"?>
<!-- Generator: Adobe Illustrator 22.0.1, SVG Export Plug-In . SVG Version: 6.00 Build 0)  -->
<svg version="1.1" id="Слой_1" xmlns="http://www.w3.org/2000/svg" xmlns:xlink="http://www.w3.org/1999/xlink" x="0px" y="0px"
	 viewBox="0 0 841.9 595.3" style="enable-background:new 0 0 841.9 595.3;" xml:space="preserve">
<style type="text/css">
	.st0{fill:#622181;}
	.st1{fill-rule:evenodd;clip-rule:evenodd;fill:#622181;}
	.st2{display:none;fill:#622181;}
	.st3{font-family:'AFuturaRoundBold';}
	.st4{font-size:28.2296px;}
	.st5{display:none;}
	.st6{display:inline;fill:#622181;}
</style>
<g>
	<g>
		<g>
			<path class="st0" d="M67.1,362.3c0-2.4,0.7-4.3,2.1-5.8c1.4-1.5,3.3-2.2,5.6-2.2c1.2,0,2.3,0.2,3.2,0.5c1.2,0.5,1.8,1.3,1.8,2.3
				c0,0.5-0.2,1-0.5,1.4c-0.4,0.4-0.8,0.6-1.3,0.6c-0.4,0-0.8-0.1-1.4-0.4c-0.6-0.2-1.2-0.3-1.8-0.3c-1,0-1.8,0.4-2.4,1.2
				c-0.5,0.7-0.7,1.6-0.7,2.6c0,1.1,0.3,2,0.8,2.7c0.6,0.8,1.4,1.1,2.5,1.1c0.6,0,1.2-0.1,1.8-0.3c0.5-0.2,1-0.3,1.3-0.3
				c0.5,0,0.9,0.2,1.3,0.6c0.3,0.4,0.5,0.8,0.5,1.4c0,0.9-0.6,1.7-1.9,2.3c-0.9,0.4-2,0.7-3.4,0.7c-2.3,0-4.1-0.8-5.5-2.3
				C67.8,366.5,67.2,364.6,67.1,362.3z"/>
			<path class="st0" d="M85.4,363.6c0.1,0.9,0.5,1.5,1.1,2c0.6,0.5,1.4,0.7,2.3,0.7c0.8,0,1.7-0.3,2.8-0.7c1.1-0.5,1.7-0.7,2-0.7
				c1.2,0,1.8,0.6,1.8,1.8c0,0.4-0.2,0.9-0.5,1.3c-0.6,0.8-1.5,1.4-2.8,1.9c-1.1,0.4-2.2,0.6-3.4,0.6c-2.2,0-4.1-0.8-5.6-2.3
				c-1.5-1.5-2.2-3.4-2.2-5.6c0-2.2,0.7-4.1,2.1-5.7c1.4-1.6,3.2-2.4,5.4-2.4c1.1,0,2.1,0.2,3,0.6c1.3,0.6,2.3,1.5,3.1,2.6
				c0.8,1.2,1.2,2.4,1.2,3.8c0,0.7-0.3,1.3-0.8,1.7c-0.5,0.3-1.1,0.5-1.8,0.5L85.4,363.6z M85.3,360.6l5.9,0
				c-0.1-0.8-0.4-1.4-0.9-1.9c-0.6-0.5-1.2-0.7-2-0.7c-0.8,0-1.5,0.2-2,0.7C85.8,359.2,85.4,359.8,85.3,360.6z"/>
			<path class="st0" d="M100.6,358.4h-1.9c-1.9,0-2.8-0.6-2.8-1.9c0-1.3,0.9-1.9,2.8-1.9l8.3,0c1.9,0,2.8,0.6,2.8,1.9
				c0,1.3-0.9,1.9-2.9,1.9l-1.9,0l0,8.5c0,2.2-0.7,3.3-2.2,3.3c-1.5,0-2.2-1.1-2.2-3.3L100.6,358.4z"/>
			<path class="st0" d="M115.6,360.6c2.6,0,4.2,0.1,4.8,0.2c2,0.3,3.3,1.1,3.8,2.4c0.2,0.6,0.3,1.3,0.3,2.1c0,1.8-0.7,3.1-2.1,3.8
				c-1,0.5-2.5,0.8-4.6,0.8l-4.2,0c-1.7,0-2.6-1-2.6-2.9l0-9.6c0-1.9,0.8-2.9,2.2-2.9c1.5,0,2.2,1,2.2,2.9V360.6z M115.6,363.5v3.4
				h1.8c1.7,0,2.6-0.6,2.6-1.7c0-0.7-0.3-1.2-0.8-1.5c-0.3-0.2-0.9-0.3-1.8-0.3L115.6,363.5z"/>
			<path class="st0" d="M135.5,362.3c0-2.4,0.7-4.3,2.1-5.8c1.4-1.5,3.3-2.2,5.6-2.2c1.2,0,2.3,0.2,3.2,0.5c1.2,0.5,1.8,1.3,1.8,2.3
				c0,0.5-0.2,1-0.5,1.4c-0.3,0.4-0.8,0.6-1.3,0.6c-0.4,0-0.8-0.1-1.4-0.3c-0.6-0.2-1.2-0.3-1.8-0.3c-1,0-1.8,0.4-2.4,1.2
				c-0.5,0.7-0.8,1.6-0.8,2.7c0,1.1,0.3,2,0.8,2.7c0.6,0.7,1.4,1.1,2.5,1.1c0.6,0,1.2-0.1,1.8-0.3c0.5-0.2,1-0.3,1.3-0.3
				c0.5,0,0.9,0.2,1.3,0.6c0.3,0.4,0.5,0.8,0.5,1.4c0,0.9-0.6,1.7-1.9,2.3c-0.9,0.4-2,0.7-3.4,0.7c-2.3,0-4.1-0.8-5.4-2.3
				C136.1,366.4,135.5,364.5,135.5,362.3z"/>
			<path class="st0" d="M159.7,358.3h-4.9l0,8.5c0,2.2-0.7,3.3-2.2,3.3c-1.5,0-2.3-1.1-2.3-3.3l0-9.2c0-1,0.1-1.7,0.4-2.1
				c0.4-0.6,1-0.9,1.9-0.9l9.3,0c0.9,0,1.5,0.3,1.9,0.9c0.2,0.4,0.4,1.2,0.4,2.1l0,9.2c0,2.2-0.7,3.3-2.2,3.3
				c-1.5,0-2.2-1.1-2.2-3.3L159.7,358.3z"/>
			<path class="st0" d="M166.4,362.2c0-2.3,0.7-4.2,2.1-5.7c1.4-1.5,3.2-2.3,5.5-2.3c2.3,0,4.1,0.8,5.5,2.3c1.4,1.5,2.1,3.5,2.1,5.7
				c0,2.3-0.7,4.2-2,5.7c-1.4,1.6-3.3,2.3-5.5,2.3c-2.2,0-4.1-0.8-5.5-2.4C167.1,366.4,166.4,364.5,166.4,362.2z M171.1,362.2
				c0,1,0.2,1.9,0.7,2.7c0.6,0.9,1.3,1.3,2.3,1.3c1,0,1.7-0.4,2.3-1.3c0.5-0.8,0.7-1.6,0.7-2.7c0-1-0.2-1.9-0.7-2.6
				c-0.6-0.8-1.3-1.3-2.3-1.3c-1,0-1.7,0.4-2.3,1.3C171.3,360.3,171.1,361.1,171.1,362.2z"/>
			<path class="st0" d="M188.4,369h-0.1l0,3.9c0,2.1-0.7,3.2-2.1,3.2c-1.5,0-2.3-1.1-2.3-3.3l0-15.1c0-2.2,0.7-3.3,2.3-3.3
				c0.9,0,1.6,0.5,2.1,1.4c0.9-1,2.1-1.5,3.7-1.5c2.1,0,3.8,0.8,5.1,2.4c1.2,1.5,1.8,3.3,1.8,5.4c0,1.6-0.4,3-1.1,4.3
				c-0.7,1.4-1.8,2.4-3.1,3.1c-0.9,0.4-1.7,0.6-2.7,0.6C190.6,370.3,189.4,369.8,188.4,369z M188.3,362.5c0,1,0.2,1.9,0.7,2.5
				c0.5,0.7,1.3,1.1,2.3,1.1c1,0,1.7-0.4,2.3-1.2c0.5-0.7,0.7-1.6,0.7-2.6c0-1-0.2-1.9-0.7-2.6c-0.5-0.8-1.3-1.2-2.3-1.2
				c-0.8,0-1.5,0.3-2.1,0.8C188.6,359.8,188.3,360.9,188.3,362.5z"/>
			<path class="st0" d="M204,358.3h-1.9c-1.9,0-2.8-0.6-2.8-1.9c0-1.3,0.9-1.9,2.8-1.9l8.3,0c1.9,0,2.8,0.6,2.8,1.9
				c0,1.3-1,1.9-2.9,1.9l-1.9,0l0,8.4c0,2.2-0.7,3.3-2.2,3.3c-1.5,0-2.2-1.1-2.2-3.3L204,358.3z"/>
			<path class="st0" d="M219,362.6l5.4-5c0-1,0.1-1.8,0.3-2.3c0.3-0.7,1-1,1.9-1c0.9,0,1.6,0.3,1.9,1c0.2,0.5,0.3,1.2,0.3,2.3l0,9
				c0,1-0.1,1.8-0.3,2.3c-0.3,0.7-1,1-1.9,1c-0.9,0-1.5-0.3-1.9-1c-0.2-0.5-0.3-1.2-0.3-2.3v-4.4l-5.4,4.4c0,1-0.1,1.8-0.3,2.3
				c-0.3,0.7-1,1-1.9,1c-1.5,0-2.3-1.1-2.3-3.3l0-9.1c0-1,0.1-1.7,0.4-2.2c0.4-0.7,1-1,1.9-1c0.9,0,1.5,0.3,1.9,1
				c0.2,0.5,0.3,1.2,0.3,2.2L219,362.6z"/>
			<path class="st0" d="M233.9,369.9c-1.7,0-2.6-1-2.6-2.9l0-9.7c0-1.9,0.8-2.9,2.6-2.9l4,0c2,0,3.5,0.3,4.5,0.8
				c1.3,0.7,1.9,2,1.9,3.8c0,1.3-0.6,2.3-1.9,2.9c1.5,0.8,2.3,1.9,2.3,3.4c0,1.9-0.7,3.1-2.1,3.8c-1,0.5-2.5,0.8-4.6,0.8H233.9z
				 M235.8,357.3l0,3.4l1.8,0c0.7,0,1.3-0.1,1.6-0.3c0.4-0.3,0.7-0.7,0.7-1.4c0-1.2-0.8-1.7-2.4-1.7H235.8z M235.8,363.6l0,3.4h1.8
				c1.7,0,2.6-0.6,2.6-1.7c0-0.7-0.3-1.2-0.8-1.5c-0.4-0.2-0.9-0.2-1.8-0.2H235.8z"/>
			<path class="st0" d="M251.6,363.5v3.1c0,2.2-0.7,3.3-2.2,3.3c-1.5,0-2.3-1.1-2.3-3.3l0-9.1c0-2.2,0.8-3.3,2.3-3.3
				c1.5,0,2.2,1.1,2.2,3.3v2.8l4.9,0v-2.8c0-2.2,0.7-3.3,2.2-3.3c1.5,0,2.2,1.1,2.2,3.3l0,9c0,2.2-0.7,3.3-2.2,3.3
				c-1.5,0-2.2-1.1-2.2-3.3l0-3.1H251.6z"/>
			<path class="st0" d="M268.4,360.4c2.6,0,4.2,0,4.8,0.2c2,0.3,3.3,1.2,3.7,2.5c0.2,0.5,0.3,1.2,0.3,2c0,1.8-0.7,3.1-2,3.8
				c-1,0.5-2.5,0.8-4.5,0.8h-4.2c-1.7,0-2.6-1-2.6-2.9l0-9.6c0-1.9,0.7-2.9,2.3-2.9c1.5,0,2.2,1,2.2,2.9V360.4z M268.4,363.4v3.4
				h1.8c1.7,0,2.6-0.6,2.6-1.7c0-0.7-0.3-1.2-0.8-1.5c-0.4-0.2-0.9-0.3-1.8-0.2H268.4z M283.8,357.6l0,9.2c0,0.9-0.1,1.6-0.4,2.1
				c-0.3,0.6-0.9,0.8-1.8,0.8c-0.9,0-1.5-0.3-1.8-0.8c-0.3-0.4-0.4-1.1-0.4-2.1l0-9.2c0-2.2,0.7-3.3,2.2-3.3
				C283,354.3,283.7,355.4,283.8,357.6z"/>
			<path class="st0" d="M292.5,364.9l-3.2,3.8c-0.6,0.8-1.3,1.2-1.9,1.2c-0.6,0-1.1-0.2-1.5-0.7c-0.4-0.4-0.6-1-0.6-1.6
				c0-0.6,0.3-1.3,0.9-2l3.7-4.1l-3.1-3.2c-0.6-0.6-0.8-1.2-0.8-1.8c0-0.6,0.2-1.1,0.6-1.6c0.4-0.5,0.9-0.7,1.5-0.7
				c0.7,0,1.3,0.3,1.9,0.9l2.8,3.2l2.5-3.1c0.6-0.7,1.2-1.1,1.8-1.1c0.6,0,1.2,0.2,1.6,0.6c0.5,0.4,0.7,1,0.7,1.6
				c0,0.6-0.3,1.2-1,1.9l-3,3.2l3.5,4c0.4,0.5,0.7,0.8,0.8,1c0.2,0.3,0.3,0.7,0.3,1.2c0,0.6-0.2,1.1-0.6,1.5
				c-0.4,0.4-0.9,0.6-1.5,0.6c-0.7,0-1.4-0.4-2.1-1.2L292.5,364.9z"/>
			<path class="st0" d="M315.9,363.4l-0.7,0.5v2.7c0,2.2-0.7,3.3-2.2,3.3c-1.5,0-2.3-1.1-2.3-3.3l0-9c0-2.2,0.7-3.3,2.3-3.3
				c1.1,0,1.8,0.6,2.1,1.9c0.1,0.4,0.1,1.5,0.1,3.2l3.8-3.9c0.8-0.8,1.6-1.2,2.3-1.2c0.5,0,1,0.2,1.3,0.5c0.4,0.3,0.6,0.7,0.6,1.2
				c0,0.7-0.4,1.5-1.1,2.2l-3,2.8l4.2,4.9c0.6,0.7,0.9,1.4,0.9,2.2c0,0.5-0.2,1-0.6,1.3c-0.4,0.3-0.9,0.5-1.5,0.5
				c-0.9,0-1.7-0.4-2.3-1.3L315.9,363.4z"/>
			<path class="st0" d="M334.9,358.1l-3.4,0c-0.7,0-1,0.3-1,1v7.1c0,1.1-0.3,2-0.9,2.6c-0.6,0.6-1.5,1-2.6,1c-1,0-1.7-0.1-2.1-0.2
				c-0.7-0.3-1-0.8-1-1.6c0-0.8,0.2-1.3,0.7-1.5c0.4-0.2,1-0.3,1.8-0.3l0-7.1c0-1.8,0.4-3.1,1.2-3.8c0.8-0.7,2.1-1.1,3.9-1.1l5.6,0
				c0.9,0,1.5,0.3,1.9,0.9c0.2,0.4,0.4,1.2,0.4,2.1v9.2c0,2.2-0.7,3.3-2.2,3.3c-0.9,0-1.5-0.4-1.8-1c-0.2-0.5-0.4-1.3-0.4-2.2
				L334.9,358.1z"/>
			<path class="st0" d="M343.1,354.2c0.6,0,1.1,0.2,1.5,0.6c0.2,0.3,0.5,0.8,0.8,1.5l2.6,6.8l2.7-7.2c0.5-1.2,1.1-1.8,2-1.8
				c1.5,0,2.2,0.7,2.2,2.1c0,0.5-0.1,1-0.4,1.6l-6.8,16.3c-0.5,1.2-1.2,1.8-2,1.8c-0.7,0-1.2-0.2-1.6-0.6c-0.4-0.4-0.6-0.9-0.6-1.6
				c0-0.4,0.1-0.9,0.4-1.5l1.8-4l-4.5-10.6c-0.2-0.4-0.2-0.8-0.2-1.2c0-0.6,0.2-1.2,0.6-1.6C341.9,354.4,342.4,354.2,343.1,354.2z"
				/>
			<path class="st0" d="M355.6,362v-2.2c0-5.8,1.4-9,4.1-9.8c0.8-0.2,2.4-0.4,4.9-0.4c1,0,1.6-0.1,1.8-0.2c0.2-0.1,0.3-0.3,0.3-0.5
				c0-0.3,0.2-0.5,0.6-0.7c0.4-0.1,0.7-0.2,1-0.2c1,0,1.5,0.8,1.5,2.3c0,0.6-0.3,1.2-0.9,1.6c-0.5,0.4-1,0.6-1.7,0.8
				c-0.5,0.1-1,0.1-1.5,0.1h-3c-1,0-1.7,0.4-2.3,1.1c-0.4,0.5-0.5,1.2-0.5,2.1h0.1c0.9-0.7,2.1-1.1,3.6-1.1c2.2,0,3.8,0.7,5,2.1
				c1,1.3,1.6,3,1.6,5.3c0,2.4-0.6,4.3-1.9,5.6c-1.3,1.4-3.1,2.1-5.4,2.1c-2.4,0-4.2-0.8-5.4-2.3C356.2,366.3,355.6,364.4,355.6,362
				z M359.9,362.2c0,2.6,1,3.9,2.9,3.9c0.8,0,1.5-0.3,2-0.9c0.5-0.6,0.8-1.6,0.8-3c0-2.4-0.9-3.6-2.9-3.6c-1,0-1.7,0.4-2.2,1.1
				C360.1,360.4,359.9,361.2,359.9,362.2z"/>
			<path class="st0" d="M371.5,362c0-2.3,0.7-4.2,2.1-5.7c1.4-1.6,3.3-2.3,5.5-2.3c2.3,0,4.1,0.8,5.5,2.3c1.4,1.5,2.1,3.5,2.1,5.8
				c0,2.3-0.7,4.2-2.1,5.7c-1.4,1.6-3.3,2.3-5.5,2.3c-2.2,0-4.1-0.8-5.5-2.4C372.2,366.1,371.5,364.3,371.5,362z M376.2,361.9
				c0,1,0.2,1.9,0.7,2.7c0.6,0.9,1.3,1.3,2.3,1.3c1,0,1.7-0.4,2.3-1.3c0.5-0.8,0.7-1.7,0.7-2.7c0-1-0.2-1.9-0.7-2.6
				c-0.6-0.9-1.3-1.3-2.3-1.3c-1,0-1.7,0.4-2.3,1.3C376.4,360,376.2,360.9,376.2,361.9z"/>
			<path class="st0" d="M391.5,369.7c-1.7,0-2.6-1-2.6-2.9l0-9.7c0-1.9,0.8-2.9,2.6-2.9l4,0c2,0,3.5,0.3,4.5,0.8c1.3,0.7,2,2,2,3.8
				c0,1.3-0.6,2.3-1.9,2.9c1.5,0.8,2.3,1.9,2.3,3.4c0,1.9-0.7,3.1-2.1,3.8c-1,0.5-2.5,0.8-4.6,0.8L391.5,369.7z M393.4,357.1l0,3.4
				h1.8c0.7,0,1.3-0.1,1.6-0.3c0.4-0.3,0.7-0.7,0.7-1.4c0-1.1-0.8-1.7-2.4-1.7H393.4z M393.4,363.4l0,3.4h1.8c1.7,0,2.6-0.6,2.6-1.7
				c0-0.7-0.3-1.2-0.8-1.5c-0.4-0.2-0.9-0.2-1.8-0.2H393.4z"/>
		</g>
	</g>
	<g>
		<path class="st1" d="M113.8,275.9c-2.9-1.1-7.7-1.6-14.5-1.6c0-3.4-0.4-5.7-1.1-7.1c-1.1-2.1-3.1-3.1-6.2-3.1c-3,0-5.1,1-6.1,3.1
			c-0.7,1.4-1.1,3.8-1.1,7.2c-6.8,0-11.7,0.5-14.5,1.6c-4.5,1.6-8,4.3-10.4,7.9c-2.4,3.6-3.7,7.8-3.7,12.6c0,4.8,1.3,9,3.8,12.6
			c2.5,3.7,6,6.3,10.5,8c2.9,1,7.7,1.6,14.4,1.6c0,3.8,0.3,6.5,0.9,7.9c1,2.5,3.1,3.7,6.3,3.7c3.2,0,5.4-1.2,6.4-3.7
			c0.6-1.4,0.9-4,0.9-7.9c6.7,0,11.5-0.5,14.3-1.6c4.5-1.6,8-4.3,10.5-8c2.5-3.6,3.8-7.9,3.8-12.6c0-4.8-1.2-9-3.7-12.6
			C121.8,280.2,118.3,277.6,113.8,275.9z M85.1,306.6l-4.1,0c-6.6,0-9.8-3.4-9.8-10.1c0-6.8,3.3-10.2,9.8-10.2l4.1,0L85.1,306.6z
			 M103.1,306.6H99l0-20.4h4.1c6.5,0,9.8,3.4,9.8,10.2C112.9,303.2,109.7,306.6,103.1,306.6z"/>
		<path class="st1" d="M185.5,264c-2.8,0-5.4,1.6-7.8,4.8l-27.1,36l0-30.3c0-7-2.5-10.4-7.4-10.4c-4.9,0-7.3,3.5-7.3,10.4l0.1,47
			c0,5.8,2.2,8.8,6.7,8.7c3.2,0,6-1.6,8.5-4.9l26.6-35.3l0,29.7c0,6.9,2.5,10.4,7.4,10.4c4.9,0,7.3-3.5,7.3-10.4l-0.1-45.8
			C192.3,267.3,190,264,185.5,264z"/>
		<path class="st1" d="M233.1,264.8l-25.6,0c-7,0-10.4,2.3-10.4,6.9c0,3.4,2,5.5,5.9,6.4c1.3,0.3,4.6,0.4,9.9,0.4l0,41.2
			c0,7,2.5,10.4,7.5,10.4c4.9,0,7.3-3.5,7.3-10.4l0-41.2c5.3,0,8.6-0.2,9.9-0.5c3.9-0.8,5.9-3,5.9-6.4
			C243.5,267,240,264.7,233.1,264.8z"/>
		<path class="st1" d="M297.3,263.9c-4.9,0-7.3,3.5-7.3,10.5l0,15.2l-27.1,0l0-15.2c0-7-2.4-10.5-7.3-10.5c-4.9,0-7.4,3.5-7.3,10.5
			l0.1,45.3c0,7,2.5,10.4,7.4,10.4c4.9,0,7.3-3.5,7.3-10.5l0-16.5l27.1,0l0,16.5c0,7,2.5,10.4,7.4,10.4c4.9,0,7.3-3.5,7.3-10.4
			l-0.1-45.3C304.7,267.3,302.2,263.9,297.3,263.9z"/>
		<path class="st1" d="M343.5,315.7l-12.5,0l0-12.3l10.4,0c7,0,10.4-2.3,10.4-6.8c0-4.5-3.5-6.8-10.4-6.8h-10.4l0-11.5l12,0
			c7,0,10.4-2.3,10.4-6.8c0-4.6-3.5-6.9-10.5-6.9l-16.6,0c-3.8,0-6.5,0.8-8,2.3c-1.5,1.5-2.2,4.2-2.2,8.1l0,45
			c0,3.7,0.7,6.1,2.2,7.4c1.5,1.3,4.1,1.9,7.8,1.9l17.2,0c7,0,10.5-2.3,10.4-6.8C353.9,318,350.4,315.7,343.5,315.7z"/>
		<path class="st1" d="M404.9,313.4c-1,0-3,0.5-5.8,1.6c-2.9,1.1-5.5,1.6-7.9,1.6c-5.4,0-9.5-1.9-12.4-5.8c-2.7-3.5-4-8-4-13.5
			c0-5.6,1.2-10.2,3.7-13.9c2.8-4.2,6.9-6.4,12.2-6.4c2.6,0,5,0.4,7.3,1.3c2.2,0.9,4.2,1.3,5.8,1.3c1.7,0,3.2-0.7,4.4-2
			c1.2-1.3,1.9-2.8,1.9-4.5c0-1.3-0.5-2.6-1.4-3.8c-1.6-2.2-4.4-3.9-8.2-5c-3.1-0.9-6.3-1.4-9.7-1.4c-9.6,0-17.3,3.3-23.2,10
			c-5.7,6.5-8.6,14.5-8.6,24.1c0,9.9,2.8,17.9,8.4,24.1c5.8,6.5,13.5,9.7,23.3,9.7c9.3,0,15.6-2.3,18.9-6.8c0.9-1.3,1.4-2.7,1.4-4.1
			c0-1.7-0.6-3.1-1.7-4.5C407.9,314.1,406.5,313.4,404.9,313.4z"/>
		<path class="st1" d="M578,264.4l-16.6,0c-3.8,0-6.5,0.8-8,2.3c-1.5,1.5-2.2,4.2-2.2,8.1l0,44.6c0,7,2.4,10.4,7.4,10.4
			c4.9,0,7.4-3.5,7.3-10.4l-0.1-41.2l12,0c7,0,10.4-2.3,10.4-6.8C588.4,266.6,584.9,264.4,578,264.4z"/>
		<path class="st1" d="M638.7,263.4c-2,0-3.6,0.7-4.8,2.1c-0.8,0.9-1.6,2.5-2.5,4.8l-11.6,30.8l-0.3,0l-12.7-31.3
			c-1.7-4.3-4-6.4-6.7-6.4c-2.2,0-3.9,0.7-5.1,2c-1.2,1.4-1.8,3.1-1.8,5.3c0,1.5,0.3,2.9,0.8,4.2l18.3,45.2l-4.1,10.4
			c-0.5,1.3-0.8,2.7-0.8,4.2c0,4.7,2.2,7,6.6,7c2,0,3.6-0.5,4.7-1.6c0.9-0.9,1.7-2.4,2.6-4.4l23.5-60.4c0.6-1.6,1-3.3,1-5
			C645.5,265.7,643.2,263.4,638.7,263.4z"/>
		<path class="st1" d="M694.2,269.8c-4.2-3.7-9.9-5.6-17-5.6l-13.3,0c-3.8,0-6.5,0.8-8,2.3c-1.5,1.5-2.2,4.2-2.2,8l0,44.6
			c0,7,2.5,10.4,7.4,10.4c4.9,0,7.3-3.5,7.3-10.4l0-11l9.9,0c7,0,12.4-1.9,16.5-5.8c4-3.8,6-9.2,6-16.2
			C700.8,279.2,698.6,273.7,694.2,269.8z M674.8,294.8h-6.4l0-17h6.4c6.7,0,10.1,2.8,10.1,8.4C684.9,291.9,681.5,294.8,674.8,294.8z
			"/>
		<path class="st1" d="M752.2,263.3c-2,0-3.6,0.7-4.8,2.1c-0.8,0.9-1.6,2.5-2.5,4.8L733.3,301l-0.4,0l-12.7-31.3
			c-1.7-4.3-4-6.4-6.7-6.4c-2.2,0-3.9,0.7-5.1,2c-1.2,1.4-1.9,3.1-1.8,5.3c0,1.5,0.3,2.9,0.8,4.1l18.3,45.2l-4.1,10.4
			c-0.6,1.3-0.8,2.7-0.8,4.2c0,4.7,2.2,7,6.6,7c2,0,3.6-0.5,4.7-1.6c0.9-0.9,1.7-2.4,2.6-4.4l23.5-60.4c0.6-1.6,1-3.3,1-5.1
			C759,265.5,756.7,263.3,752.2,263.3z"/>
		<path class="st1" d="M478.2,164c0,0-110.5,91.5-5.5,251.2C463.6,373.2,429.7,255.4,478.2,164z"/>
		<path class="st1" d="M464,216.3c0,9.6,7.8,17.3,17.3,17.3c9.6,0,17.3-7.8,17.3-17.3c0-9.6-7.8-17.3-17.3-17.3
			C471.7,199,464,206.7,464,216.3z"/>
		<path class="st1" d="M524.1,303.9c-35.6-18.7-86.3-29-16.6-70.3c0,0-50.4,5.7-49.8,40.1c0.6,34.4,52.4,24.2,49.9,63.6
			c-2.4,39.4-15.7,46-28,62C508.5,377.7,559.7,322.6,524.1,303.9z"/>
	</g>
</g>
<rect x="-12.2" y="576.8" class="st2" width="801" height="277.5"/>
<text transform="matrix(1 0 0 1 578.1836 362.9435)" class="st2 st3 st4">fitnes-guru.ru</text>
<g class="st5">
	<path class="st6" d="M585.3,354.4c2.4,0,3.6,0.7,3.6,2c0,0.9-0.4,1.5-1.3,1.8c-0.5,0.2-1.2,0.2-2.4,0.2v8.1c0,2.2-0.8,3.3-2.3,3.3
		c-1.5,0-2.3-1.1-2.3-3.3v-8.1c-1.8,0-2.7-0.7-2.7-2c0-1.4,0.9-2,2.7-2v-1.6c0-1.6,0.4-2.9,1.1-3.8c0.8-1,2-1.5,3.6-1.5
		c2,0,3,0.8,3,2.3c0,1.2-0.7,1.9-2.1,1.9c-0.5,0-0.7,0.1-0.8,0.4C585.4,352.2,585.3,353,585.3,354.4z"/>
	<path class="st6" d="M589.7,350.1c0-0.7,0.3-1.4,0.8-1.9c0.5-0.5,1.1-0.8,1.9-0.8s1.4,0.3,1.8,0.8c0.5,0.5,0.7,1.1,0.7,1.9
		c0,0.7-0.2,1.4-0.7,1.9c-0.5,0.5-1.1,0.8-1.8,0.8c-0.8,0-1.4-0.2-1.9-0.7C590,351.5,589.7,350.9,589.7,350.1z M594.6,366.5
		c0,2.2-0.8,3.3-2.3,3.3c-1.5,0-2.3-1.1-2.3-3.3v-9.2c0-2.2,0.8-3.3,2.3-3.3c1.5,0,2.3,1.1,2.3,3.3V366.5z"/>
	<path class="st6" d="M598.8,358.4c-1.8,0-2.7-0.7-2.7-2c0-1.3,0.9-1.9,2.7-2c0-1.8,0-3,0.1-3.3c0.3-1.3,1-2,2.2-2
		c1.1,0,1.9,0.7,2.1,2c0.1,0.4,0.1,1.5,0.1,3.3c2.2,0,3.3,0.7,3.3,2c0,1.3-1.1,2-3.3,2v8.1c0,2.2-0.8,3.3-2.3,3.3
		c-1.5,0-2.3-1.1-2.3-3.3V358.4z"/>
	<path class="st6" d="M607.5,366.5v-9.2c0-2.2,0.8-3.3,2.3-3.3c0.9,0,1.6,0.5,2.2,1.4c0.9-1,2.2-1.4,4-1.4c3.7,0,5.6,2,5.6,5.9v6.6
		c0,2.2-0.8,3.3-2.3,3.3s-2.3-1.1-2.3-3.3v-5.2c0-1.1-0.1-1.9-0.4-2.4c-0.4-0.7-1-1-2-1c-1.6,0-2.4,1.1-2.4,3.4v5.2
		c0,2.2-0.8,3.3-2.3,3.3C608.3,369.8,607.5,368.7,607.5,366.5z"/>
	<path class="st6" d="M628.5,363.2c0.1,0.9,0.5,1.6,1.1,2c0.6,0.5,1.4,0.7,2.3,0.7c0.8,0,1.7-0.2,2.8-0.7c1.1-0.5,1.8-0.7,2-0.7
		c1.2,0,1.8,0.6,1.8,1.8c0,0.5-0.2,0.9-0.5,1.4c-0.6,0.8-1.6,1.5-2.9,1.9c-1.1,0.4-2.3,0.6-3.5,0.6c-2.3,0-4.1-0.8-5.6-2.3
		c-1.5-1.6-2.3-3.5-2.3-5.7c0-2.3,0.7-4.2,2.2-5.8c1.4-1.6,3.3-2.4,5.5-2.4c1.1,0,2.1,0.2,3,0.6c1.3,0.6,2.4,1.5,3.2,2.7
		s1.2,2.5,1.2,3.9c0,0.8-0.3,1.3-0.8,1.7c-0.5,0.4-1.1,0.5-1.9,0.5H628.5z M628.4,360.2h6c-0.1-0.8-0.4-1.4-0.9-1.9
		c-0.6-0.5-1.2-0.8-2-0.8c-0.8,0-1.5,0.2-2,0.7C628.9,358.7,628.6,359.4,628.4,360.2z"/>
	<path class="st6" d="M645.4,370c-2.5,0-4.3-0.7-5.2-2.1c-0.3-0.4-0.4-0.8-0.4-1.3c0-1.4,0.7-2.1,2.1-2.1c0.4,0,1,0.2,1.7,0.7
		c0.7,0.5,1.4,0.7,2.1,0.7c0.8,0,1.3-0.3,1.3-0.9c0-0.4-0.6-0.9-1.8-1.4c-1.6-0.7-2.7-1.3-3.3-1.7c-1.2-0.9-1.8-2-1.8-3.2
		c0-1.5,0.6-2.7,1.8-3.6c1.1-0.9,2.4-1.3,4-1.3c1,0,1.9,0.2,2.7,0.5c1,0.4,1.8,0.9,2.2,1.6c0.3,0.4,0.4,0.8,0.4,1.2
		c0,0.5-0.2,1-0.5,1.4s-0.8,0.6-1.3,0.6c-0.4,0-1-0.2-1.8-0.6c-0.8-0.4-1.4-0.6-1.9-0.6c-0.7,0-1,0.3-1,0.8c0,0.4,0.3,0.7,0.9,1
		c1.3,0.5,2.2,0.9,2.7,1.1c1,0.5,1.8,1.1,2.4,1.7c0.6,0.7,0.9,1.5,0.9,2.6c0,1.6-0.6,2.9-1.9,3.8C648.4,369.6,647,370,645.4,370z"/>
	<path class="st6" d="M655.3,363.5c-1.5,0-2.3-0.7-2.3-2c0-1.3,0.8-2,2.3-2h5.9c1.5,0,2.3,0.7,2.3,2c0,1.3-0.8,1.9-2.3,1.9H655.3z"
		/>
	<path class="st6" d="M675.9,367.7h-0.1c-1,1.4-2.3,2.1-4,2.1c-0.9,0-1.7-0.2-2.5-0.6c-1.3-0.7-2.3-1.7-3.1-3.1
		c-0.7-1.3-1-2.7-1-4.3c0-2.1,0.6-4,1.9-5.6c1.4-1.7,3.1-2.5,5.2-2.5c1.5,0,2.7,0.5,3.7,1.6c0.5-1,1.1-1.4,2-1.4
		c1.5,0,2.3,1.1,2.3,3.3v9.2c0,1.4-0.1,2.6-0.2,3.6c-0.3,2-1.1,3.6-2.6,4.6c-1.4,1-3.1,1.5-5.2,1.5c-2.1,0-3.7-0.3-4.9-1
		c-1.2-0.7-1.8-1.4-1.8-2.3c0-0.6,0.2-1.1,0.6-1.4c0.4-0.4,0.8-0.6,1.4-0.6c0.3,0,1,0.2,2,0.6c1,0.4,2,0.6,2.9,0.6
		c1.2,0,2.1-0.3,2.7-1c0.6-0.7,0.9-1.6,0.9-2.8V367.7z M675.9,362.2v-0.8c0-2.2-1-3.2-3-3.2c-1,0-1.7,0.4-2.3,1.2
		c-0.5,0.7-0.7,1.5-0.7,2.6c0,1,0.2,1.9,0.7,2.6c0.5,0.8,1.3,1.2,2.3,1.2c1,0,1.8-0.3,2.3-1C675.6,364,675.9,363.2,675.9,362.2z"/>
	<path class="st6" d="M683.2,363.4v-6.1c0-2.2,0.8-3.3,2.3-3.3c1.5,0,2.3,1.1,2.3,3.3v5.1c0,1,0.1,1.8,0.4,2.3c0.4,0.7,1,1,1.9,1
		c0.9,0,1.6-0.3,1.9-1c0.3-0.5,0.4-1.3,0.4-2.3v-5.1c0-2.2,0.8-3.3,2.3-3.3c1.5,0,2.3,1.1,2.3,3.3v6.1c0,2.2-0.6,3.8-1.8,5
		c-1.2,1.1-2.9,1.7-5.1,1.7c-2.2,0-3.9-0.6-5.1-1.7C683.8,367.2,683.2,365.6,683.2,363.4z"/>
	<path class="st6" d="M700,366.5v-9.2c0-2.2,0.8-3.3,2.3-3.3c0.9,0,1.6,0.5,2.2,1.4c0.9-1,2-1.5,3.1-1.5c0.7,0,1.2,0.2,1.7,0.6
		c0.5,0.4,0.7,1,0.7,1.6c0,0.7-0.4,1.3-1.2,1.7c-0.1,0-0.9,0.3-2.3,0.9c-0.9,0.4-1.4,0.8-1.6,1.2c-0.1,0.4-0.2,0.9-0.2,1.8v4.7
		c0,2.2-0.8,3.3-2.3,3.3C700.8,369.8,700,368.7,700,366.5z"/>
	<path class="st6" d="M711,363.4v-6.1c0-2.2,0.8-3.3,2.3-3.3c1.5,0,2.3,1.1,2.3,3.3v5.1c0,1,0.1,1.8,0.4,2.3c0.4,0.7,1,1,1.9,1
		c0.9,0,1.6-0.3,1.9-1c0.3-0.5,0.4-1.3,0.4-2.3v-5.1c0-2.2,0.8-3.3,2.3-3.3c1.5,0,2.3,1.1,2.3,3.3v6.1c0,2.2-0.6,3.8-1.8,5
		c-1.2,1.1-2.9,1.7-5.1,1.7c-2.2,0-3.9-0.6-5.1-1.7C711.6,367.2,711,365.6,711,363.4z"/>
	<path class="st6" d="M727,367.2c0-0.7,0.3-1.4,0.8-1.9s1.1-0.8,1.9-0.8c0.8,0,1.4,0.3,1.9,0.8c0.5,0.5,0.7,1.1,0.7,1.9
		c0,0.7-0.3,1.4-0.8,1.9c-0.5,0.5-1.1,0.8-1.9,0.8c-0.7,0-1.4-0.3-1.9-0.8C727.3,368.6,727,367.9,727,367.2z"/>
	<path class="st6" d="M734.5,366.5v-9.2c0-2.2,0.8-3.3,2.3-3.3c0.9,0,1.6,0.5,2.2,1.4c0.9-1,2-1.5,3.1-1.5c0.7,0,1.2,0.2,1.7,0.6
		c0.5,0.4,0.7,1,0.7,1.6c0,0.7-0.4,1.3-1.2,1.7c-0.1,0-0.9,0.3-2.3,0.9c-0.9,0.4-1.4,0.8-1.6,1.2c-0.1,0.4-0.2,0.9-0.2,1.8v4.7
		c0,2.2-0.8,3.3-2.3,3.3C735.3,369.8,734.5,368.7,734.5,366.5z"/>
	<path class="st6" d="M745.4,363.4v-6.1c0-2.2,0.8-3.3,2.3-3.3c1.5,0,2.3,1.1,2.3,3.3v5.1c0,1,0.1,1.8,0.4,2.3c0.4,0.7,1,1,1.9,1
		c0.9,0,1.6-0.3,1.9-1c0.3-0.5,0.4-1.3,0.4-2.3v-5.1c0-2.2,0.8-3.3,2.3-3.3c1.5,0,2.3,1.1,2.3,3.3v6.1c0,2.2-0.6,3.8-1.8,5
		c-1.2,1.1-2.9,1.7-5.1,1.7c-2.2,0-3.9-0.6-5.1-1.7S745.4,365.6,745.4,363.4z"/>
</g>
</svg>
