<?xml version="1.0" encoding="iso-8859-1"?>
<!-- Generator: Adobe Illustrator 19.0.0, SVG Export Plug-In . SVG Version: 6.00 Build 0)  -->
<svg xmlns="http://www.w3.org/2000/svg" xmlns:xlink="http://www.w3.org/1999/xlink" version="1.1" id="Layer_1" x="0px" y="0px" viewBox="0 0 384 384" style="enable-background:new 0 0 384 384;" xml:space="preserve" width="512px" height="512px">
<g>
	<g>
		<g>
			<path d="M138.667,0h-64C62.933,0,53.333,9.6,53.333,21.333v341.333c0,11.733,9.6,21.333,21.333,21.333h64     C150.4,384,160,374.4,160,362.667V21.333C160,9.6,150.4,0,138.667,0z" fill="#FFFFFF"/>
			<path d="M309.333,0h-64C233.6,0,224,9.6,224,21.333v341.333C224,374.4,233.6,384,245.333,384h64     c11.733,0,21.333-9.6,21.333-21.333V21.333C330.667,9.6,321.067,0,309.333,0z" fill="#FFFFFF"/>
		</g>
	</g>
</g>
<g>
</g>
<g>
</g>
<g>
</g>
<g>
</g>
<g>
</g>
<g>
</g>
<g>
</g>
<g>
</g>
<g>
</g>
<g>
</g>
<g>
</g>
<g>
</g>
<g>
</g>
<g>
</g>
<g>
</g>
</svg>
