<?xml version="1.0" encoding="UTF-8" standalone="no"?>
<svg
   xmlns:dc="http://purl.org/dc/elements/1.1/"
   xmlns:cc="http://creativecommons.org/ns#"
   xmlns:rdf="http://www.w3.org/1999/02/22-rdf-syntax-ns#"
   xmlns:svg="http://www.w3.org/2000/svg"
   xmlns="http://www.w3.org/2000/svg"
   viewBox="0 0 87.934135 87.934135"
   height="87.934135"
   width="87.934135"
   xml:space="preserve"
   id="svg2"
   version="1.1"><metadata
     id="metadata8"><rdf:RDF><cc:Work
         rdf:about=""><dc:format>image/svg+xml</dc:format><dc:type
           rdf:resource="http://purl.org/dc/dcmitype/StillImage" /></cc:Work></rdf:RDF></metadata><defs
     id="defs6"><linearGradient
       id="linearGradient30"
       spreadMethod="pad"
       gradientTransform="matrix(0,-56.885162,-56.885162,0,32.975304,61.757198)"
       gradientUnits="userSpaceOnUse"
       y2="0"
       x2="1"
       y1="0"
       x1="0"><stop
         id="stop24"
         offset="0"
         style="stop-opacity:1;stop-color:#6487d1" /><stop
         id="stop26"
         offset="0.21154923"
         style="stop-opacity:1;stop-color:#6487d1" /><stop
         id="stop28"
         offset="1"
         style="stop-opacity:1;stop-color:#2f4b85" /></linearGradient><clipPath
       id="clipPath40"
       clipPathUnits="userSpaceOnUse"><path
         id="path38"
         d="M 0,65.951 H 65.951 V 0 H 0 Z" /></clipPath><clipPath
       id="clipPath52"
       clipPathUnits="userSpaceOnUse"><path
         id="path50"
         d="M 2.56979,65.9003 H 52.9877 V 30.0955 H 2.56979 Z" /></clipPath><clipPath
       id="clipPath56"
       clipPathUnits="userSpaceOnUse"><path
         id="path54"
         d="M 52.071,57.012 C 48.744,63.508 34.613,69.07 21.139,63.81 7.665,58.55 0.141,45.998 3.278,37.963 6.415,29.927 19.881,27.677 33.355,32.938 c 13.474,5.26 22.648,16.396 18.716,24.074" /></clipPath><radialGradient
       id="radialGradient68"
       spreadMethod="pad"
       gradientTransform="matrix(46.330585,3.4679592,-3.4679592,-38.802944,38.601273,28.703079)"
       gradientUnits="userSpaceOnUse"
       r="1"
       cy="0"
       cx="0"
       fy="0"
       fx="0"><stop
         id="stop62"
         offset="0"
         style="stop-opacity:1;stop-color:#ffffff" /><stop
         id="stop64"
         offset="0.39427823"
         style="stop-opacity:0;stop-color:#ffffff" /><stop
         id="stop66"
         offset="1"
         style="stop-opacity:0;stop-color:#ffffff" /></radialGradient><mask
       id="mask70"
       height="1"
       width="1"
       y="0"
       x="0"
       maskUnits="userSpaceOnUse"><g
         id="g80"><g
           id="g78"><g
             id="g76"><g
               id="g74"><path
                 id="path72"
                 style="fill:url(#radialGradient68);stroke:none"
                 d="M -32768,32767 H 32767 V -32768 H -32768 Z" /></g></g></g></g></mask><radialGradient
       id="radialGradient88"
       spreadMethod="pad"
       gradientTransform="matrix(46.330585,3.4679592,-3.4679592,-38.802944,38.601273,28.703079)"
       gradientUnits="userSpaceOnUse"
       r="1"
       cy="0"
       cx="0"
       fy="0"
       fx="0"><stop
         id="stop82"
         offset="0"
         style="stop-opacity:1;stop-color:#ffffff" /><stop
         id="stop84"
         offset="0.39427823"
         style="stop-opacity:1;stop-color:#ffffff" /><stop
         id="stop86"
         offset="1"
         style="stop-opacity:1;stop-color:#ffffff" /></radialGradient><clipPath
       id="clipPath114"
       clipPathUnits="userSpaceOnUse"><path
         id="path112"
         d="M 3.25929,47.4483 H 65.9506 V 0.050293 H 3.25929 Z" /></clipPath><clipPath
       id="clipPath118"
       clipPathUnits="userSpaceOnUse"><path
         id="path116"
         d="m 62.634,47.448 c 0.672,-2.469 1.034,-5.051 1.034,-7.71 0,-17.51 -15.47,-31.704 -34.554,-31.704 -10.29,0 -19.525,4.132 -25.855,10.68 C 8.588,7.67 19.891,0.05 32.975,0.05 c 18.212,0 32.976,14.764 32.976,32.976 0,5.172 -1.195,10.065 -3.317,14.422" /></clipPath><radialGradient
       id="radialGradient128"
       spreadMethod="pad"
       gradientTransform="matrix(42.754322,17.700678,10.922823,-26.383053,36.815262,20.275927)"
       gradientUnits="userSpaceOnUse"
       r="1"
       cy="0"
       cx="0"
       fy="0"
       fx="0"><stop
         id="stop124"
         offset="0"
         style="stop-opacity:1;stop-color:#ffffff" /><stop
         id="stop126"
         offset="1"
         style="stop-opacity:0;stop-color:#ffffff" /></radialGradient><mask
       id="mask130"
       height="1"
       width="1"
       y="0"
       x="0"
       maskUnits="userSpaceOnUse"><g
         id="g140"><g
           id="g138"><g
             id="g136"><g
               id="g134"><path
                 id="path132"
                 style="fill:url(#radialGradient128);stroke:none"
                 d="M -32768,32767 H 32767 V -32768 H -32768 Z" /></g></g></g></g></mask><radialGradient
       id="radialGradient146"
       spreadMethod="pad"
       gradientTransform="matrix(42.754322,17.700678,10.922823,-26.383053,36.815262,20.275927)"
       gradientUnits="userSpaceOnUse"
       r="1"
       cy="0"
       cx="0"
       fy="0"
       fx="0"><stop
         id="stop142"
         offset="0"
         style="stop-opacity:1;stop-color:#1d1d1b" /><stop
         id="stop144"
         offset="1"
         style="stop-opacity:1;stop-color:#ffffff" /></radialGradient></defs><g
     transform="matrix(1.3333333,0,0,-1.3333333,0,87.934133)"
     id="g10"><g
       id="g12"><g
         id="g14"><g
           id="g20"><g
             id="g22"><path
               id="path32"
               style="fill:url(#linearGradient30);stroke:none"
               d="M 32.975,65.95 C 14.763,65.95 0,51.187 0,32.975 v 0 C 0,14.764 14.763,0 32.975,0 V 0 C 51.187,0 65.95,14.764 65.95,32.975 v 0 c 0,18.212 -14.763,32.975 -32.975,32.975 z" /></g></g></g></g><g
       id="g34"><g
         clip-path="url(#clipPath40)"
         id="g36"><g
           transform="translate(27.6596,11.2773)"
           id="g42"><path
             id="path44"
             style="fill:#ffffff;fill-opacity:1;fill-rule:nonzero;stroke:none"
             d="m 0,0 h 8.464 v 21.196 h 5.906 l 0.629,7.096 H 8.464 v 4.042 c 0,1.674 0.337,2.335 1.955,2.335 h 4.58 v 7.365 H 9.139 C 2.84,42.034 0,39.26 0,33.951 V 28.292 H -4.402 V 21.107 H 0 Z" /></g><g
           id="g46"><g
             id="g48" /><g
             id="g106"><g
               id="g104"
               clip-path="url(#clipPath52)"><g
                 id="g102"><g
                   id="g100"
                   clip-path="url(#clipPath56)"><g
                     id="g98"><g
                       id="g90" /><g
                       id="g96"
                       mask="url(#mask70)"><g
                         id="g94"><path
                           id="path92"
                           style="fill:url(#radialGradient88);stroke:none"
                           d="M 52.071,57.012 C 48.744,63.508 34.613,69.07 21.139,63.81 7.665,58.55 0.141,45.998 3.278,37.963 6.415,29.927 19.881,27.677 33.355,32.938 c 13.474,5.26 22.648,16.396 18.716,24.074" /></g></g></g></g></g></g></g></g><g
           id="g108"><g
             id="g110" /><g
             id="g164"><g
               id="g162"
               clip-path="url(#clipPath114)"><g
                 id="g160"><g
                   id="g158"
                   clip-path="url(#clipPath118)"><g
                     id="g156"><g
                       id="g148" /><g
                       id="g154"
                       mask="url(#mask130)"><g
                         id="g152"><path
                           id="path150"
                           style="fill:url(#radialGradient146);stroke:none"
                           d="m 62.634,47.448 c 0.672,-2.469 1.034,-5.051 1.034,-7.71 0,-17.51 -15.47,-31.704 -34.554,-31.704 -10.29,0 -19.525,4.132 -25.855,10.68 C 8.588,7.67 19.891,0.05 32.975,0.05 c 18.212,0 32.976,14.764 32.976,32.976 0,5.172 -1.195,10.065 -3.317,14.422" /></g></g></g></g></g></g></g></g></g></g></g></svg>