<?xml version="1.0" encoding="UTF-8" standalone="no"?>
<svg
   xmlns:dc="http://purl.org/dc/elements/1.1/"
   xmlns:cc="http://creativecommons.org/ns#"
   xmlns:rdf="http://www.w3.org/1999/02/22-rdf-syntax-ns#"
   xmlns:svg="http://www.w3.org/2000/svg"
   xmlns="http://www.w3.org/2000/svg"
   viewBox="0 0 223.59734 376.05334"
   height="376.05334"
   width="223.59734"
   xml:space="preserve"
   id="svg2"
   version="1.1"><metadata
     id="metadata8"><rdf:RDF><cc:Work
         rdf:about=""><dc:format>image/svg+xml</dc:format><dc:type
           rdf:resource="http://purl.org/dc/dcmitype/StillImage" /></cc:Work></rdf:RDF></metadata><defs
     id="defs6"><clipPath
       id="clipPath26"
       clipPathUnits="userSpaceOnUse"><path
         id="path24"
         d="m 64.035,93.149 84.646,-48.87 3.73,69.062 -84.645,48.871 z" /></clipPath><clipPath
       id="clipPath42"
       clipPathUnits="userSpaceOnUse"><path
         id="path40"
         d="M 0,282.04 H 167.698 V 0 H 0 Z" /></clipPath><clipPath
       id="clipPath70"
       clipPathUnits="userSpaceOnUse"><path
         id="path68"
         d="M 0,282.04 H 167.698 V 0 H 0 Z" /></clipPath><clipPath
       id="clipPath98"
       clipPathUnits="userSpaceOnUse"><path
         id="path96"
         d="M 0,282.04 H 167.698 V 0 H 0 Z" /></clipPath><clipPath
       id="clipPath180"
       clipPathUnits="userSpaceOnUse"><path
         id="path178"
         d="m 105.707,253.421 h 8.621 v -12.057 h -8.621 z" /></clipPath><clipPath
       id="clipPath196"
       clipPathUnits="userSpaceOnUse"><path
         id="path194"
         d="m 102.282,253.326 h 6.593 v -12.021 h -6.593 z" /></clipPath></defs><g
     transform="matrix(1.3333333,0,0,-1.3333333,0,376.05333)"
     id="g10"><g
       transform="translate(64.9364,166.262)"
       id="g12"><path
         id="path14"
         style="fill:#eaeaea;fill-opacity:1;fill-rule:nonzero;stroke:none"
         d="m 0,0 -3.884,-75.769 90.457,-52.226 3.884,75.77 z" /></g><g
       transform="translate(64.035,93.1491)"
       id="g16"><path
         id="path18"
         style="fill:#83ddff;fill-opacity:1;fill-rule:nonzero;stroke:none"
         d="M 0,0 84.646,-48.87 88.376,20.191 3.73,69.062 Z" /></g><g
       id="g20"><g
         clip-path="url(#clipPath26)"
         id="g22"><g
           transform="translate(162.1454,108.4461)"
           id="g28"><path
             id="path30"
             style="fill:#f1f2f4;fill-opacity:1;fill-rule:nonzero;stroke:none"
             d="m 0,0 c -2.893,-1.552 -4.984,-4.012 -6.115,-6.839 -3.101,0.501 -6.206,-0.122 -8.851,-1.611 -1.773,-0.289 -3.5,-0.896 -5.09,-1.823 -2.435,0.995 -5.134,0.863 -7.454,-0.218 -5.145,2.154 -11.02,2.325 -16.374,0.213 -2.727,4.015 -6.825,7.132 -11.86,8.561 -5.62,1.595 -11.352,0.787 -16.104,-1.806 -3.389,-0.008 -6.629,-1.195 -9.2,-3.276 -1.929,1.56 -4.276,2.625 -6.871,2.981 -0.871,6.05 -6.221,10.555 -12.448,10.243 -0.701,-0.035 -1.38,-0.142 -2.041,-0.291 -0.002,0.027 0.001,0.053 0,0.08 -0.1,1.974 -0.781,3.776 -1.863,5.264 -0.299,-21.764 -0.749,-43.531 -1.407,-65.291 2.504,-2.156 5.492,-3.828 8.88,-4.789 5.36,-1.521 10.812,-1.047 15.57,0.97 l 4.422,-1.255 0.141,-0.039 1.591,-0.452 2.6,-0.737 0.714,-0.203 19.806,-5.621 3.264,-0.926 7.142,-2.028 8.326,-2.363 1.929,-0.547 11.279,-3.201 14.485,-21.179 7.243,-10.59 3.839,2.625 V 1.56 C 3.667,1.449 1.774,0.952 0,0" /></g><g
           transform="translate(166.163,82.4608)"
           id="g32"><path
             id="path34"
             style="fill:#ffffff;fill-opacity:1;fill-rule:nonzero;stroke:none"
             d="M 0,0 C -0.011,-0.028 -0.018,-0.056 -0.029,-0.084 -0.668,0.317 -1.34,0.681 -2.061,0.977 -8.473,3.61 -15.748,0.871 -18.902,-5.149 c -2.851,0.589 -5.707,0.341 -8.306,-0.579 -1.926,3.137 -4.885,5.582 -8.44,6.844 -4.02,4.475 -9.721,7.446 -16.199,7.855 -5.806,0.367 -11.253,-1.386 -15.598,-4.584 -6.212,5.401 -14.733,7.213 -22.527,4.981 -3.27,7.206 -11.11,10.97 -18.615,9.3 -0.438,-24.553 -1.083,-49.105 -2.039,-73.645 l 9.418,-0.594 21.603,-1.367 21.512,-1.36 7.147,-0.452 5.112,-0.323 c 4.239,-3.874 9.77,-6.393 15.947,-6.783 5.657,-0.358 10.991,1.133 15.456,3.924 2.232,-4.406 5.767,-8.066 10.145,-10.422 l 5.821,-0.368 V 2.626 C 0.918,1.845 0.397,0.967 0,0" /></g></g></g><g
       id="g36"><g
         clip-path="url(#clipPath42)"
         id="g38"><g
           transform="translate(151.5097,38.2674)"
           id="g44"><path
             id="path46"
             style="fill:#6f6f71;fill-opacity:1;fill-rule:nonzero;stroke:none"
             d="M 0,0 1.494,0.868 C 2.281,1.326 2.767,2.166 2.77,3.076 L 5.265,76.728 3.884,75.77 Z" /></g><g
           transform="translate(155.3935,114.0369)"
           id="g48"><path
             id="path50"
             style="fill:#b6b6ba;fill-opacity:1;fill-rule:nonzero;stroke:none"
             d="m 0,0 1.381,0.958 -90.457,52.225 -1.381,-0.958 z" /></g></g></g><g
       transform="translate(0.3753,54.5184)"
       id="g52"><path
         id="path54"
         style="fill:#e1ecf0;fill-opacity:1;fill-rule:nonzero;stroke:none"
         d="M 0,0 90.609,-52.657 151.35,-16.251 60.741,36.405 Z" /></g><g
       transform="translate(0.3753,54.5184)"
       id="g56"><path
         id="path58"
         style="fill:#e9ebee;fill-opacity:1;fill-rule:nonzero;stroke:none"
         d="M 0,0 90.609,-52.657 151.35,-16.251 60.741,36.405 Z" /></g><g
       transform="translate(138.2167,38.1766)"
       id="g60"><path
         id="path62"
         style="fill:#d6d6d6;fill-opacity:1;fill-rule:nonzero;stroke:none"
         d="m 0,0 -77.047,44.774 -31.04,-18.91 77.048,-44.774 z" /></g><g
       id="g64"><g
         clip-path="url(#clipPath70)"
         id="g66"><g
           transform="translate(71.9706,36.5496)"
           id="g72"><path
             id="path74"
             style="fill:#d6d6d6;fill-opacity:1;fill-rule:nonzero;stroke:none"
             d="m 0,0 -21.791,12.523 c -0.653,0.376 -1.46,0.367 -2.105,-0.025 L -32.953,6.999 C -34.3,6.182 -34.276,4.22 -32.91,3.435 l 21.791,-12.523 c 0.653,-0.376 1.46,-0.366 2.105,0.025 l 9.057,5.5 C 1.39,-2.746 1.366,-0.784 0,0" /></g><g
           transform="translate(0.3749,54.5184)"
           id="g76"><path
             id="path78"
             style="fill:#a2a2a6;fill-opacity:1;fill-rule:nonzero;stroke:none"
             d="m 0,0 0.009,-1.861 90.61,-52.658 -0.01,1.862 z" /></g><g
           transform="translate(90.9843,1.8611)"
           id="g80"><path
             id="path82"
             style="fill:#6f6f72;fill-opacity:1;fill-rule:nonzero;stroke:none"
             d="m 0,0 0.01,-1.861 59.455,34.327 c 0.795,0.459 1.284,1.307 1.281,2.225 l -0.005,1.715 z" /></g><g
           transform="translate(0.3749,54.5184)"
           id="g84"><path
             id="path86"
             style="fill:none;stroke:#97a3cc;stroke-width:0.75;stroke-linecap:round;stroke-linejoin:round;stroke-miterlimit:10;stroke-dasharray:none;stroke-opacity:1"
             d="m 0,0 90.609,-52.657 60.742,36.406 -90.61,52.656 z" /></g></g></g><path
       id="path88"
       style="fill:#d6d6d6;fill-opacity:1;fill-rule:nonzero;stroke:none"
       d="m 137.043,70.662 h -4.165 v 127.06 h 4.165 z" /><path
       id="path90"
       style="fill:#d6d6d6;fill-opacity:1;fill-rule:nonzero;stroke:none"
       d="m 83.568,95.144 h -4.165 v 102.578 h 4.165 z" /><g
       id="g92"><g
         clip-path="url(#clipPath98)"
         id="g94"><g
           transform="translate(78.3163,193.9944)"
           id="g100"><path
             id="path102"
             style="fill:#d6d6d6;fill-opacity:1;fill-rule:nonzero;stroke:none"
             d="M 0,0 C 0.245,-3.4 1.817,-10.448 3.249,-10.424 4.68,-10.399 6.007,-3.3 6.134,0.106 6.278,3.983 7.057,3.967 3,3.896 -1.057,3.826 -0.279,3.87 0,0" /></g><g
           transform="translate(79.5185,193.3274)"
           id="g104"><path
             id="path106"
             style="fill:#ffcc00;fill-opacity:1;fill-rule:nonzero;stroke:none"
             d="m 0,0 c 0.143,-1.644 1.074,-4.198 1.95,-4.183 0.875,0.015 1.718,2.6 1.803,4.248 C 3.851,1.94 4.312,2.784 1.83,2.741 -0.652,2.698 -0.162,1.871 0,0" /></g><g
           transform="translate(78.0029,200.4759)"
           id="g108"><path
             id="path110"
             style="fill:#3d4b7a;fill-opacity:1;fill-rule:nonzero;stroke:none"
             d="M 0,0 15.028,0.261 17.349,21.822 14.781,21.777 2.694,11.841 C 0.888,10.34 -0.141,8.099 -0.1,5.75 Z" /></g><g
           transform="translate(77.6015,198.2767)"
           id="g112"><path
             id="path114"
             style="fill:#3d4b7a;fill-opacity:1;fill-rule:nonzero;stroke:none"
             d="m 0,0 c 0.018,-1.01 0.026,-1.514 0.043,-2.523 2.933,0.693 4.491,0.701 7.414,0.055 -0.018,1.02 -0.026,1.53 -0.044,2.549 C 4.484,0.642 2.935,0.629 0,0" /></g><g
           transform="translate(77.3232,214.4436)"
           id="g116"><path
             id="path118"
             style="fill:#0ec9bb;fill-opacity:1;fill-rule:nonzero;stroke:none"
             d="m 0,0 c 0.093,-5.389 0.186,-10.778 0.278,-16.167 2.935,0.629 4.485,0.642 7.413,0.081 C 7.599,-10.677 7.505,-5.268 7.41,0.142 7.39,1.344 6.799,2.477 5.817,3.171 5.479,3.412 5.309,3.531 4.97,3.77 4.56,4.059 4.075,4.193 3.597,4.178 3.139,4.163 2.69,4.01 2.313,3.724 1.98,3.473 1.814,3.347 1.482,3.094 0.529,2.363 -0.021,1.205 0,0" /></g><g
           transform="translate(138.1298,193.9944)"
           id="g120"><path
             id="path122"
             style="fill:#d6d6d6;fill-opacity:1;fill-rule:nonzero;stroke:none"
             d="M 0,0 C -0.245,-3.4 -1.818,-10.448 -3.249,-10.424 -4.68,-10.399 -6.007,-3.3 -6.134,0.106 -6.278,3.983 -7.057,3.967 -3,3.896 1.057,3.826 0.279,3.87 0,0" /></g><g
           transform="translate(136.9277,193.3274)"
           id="g124"><path
             id="path126"
             style="fill:#ffcc00;fill-opacity:1;fill-rule:nonzero;stroke:none"
             d="m 0,0 c -0.143,-1.644 -1.074,-4.198 -1.95,-4.183 -0.875,0.015 -1.718,2.6 -1.803,4.248 C -3.851,1.94 -4.312,2.784 -1.829,2.741 0.652,2.698 0.162,1.871 0,0" /></g><g
           transform="translate(138.4433,200.4759)"
           id="g128"><path
             id="path130"
             style="fill:#3d4b7a;fill-opacity:1;fill-rule:nonzero;stroke:none"
             d="m 0,0 -15.028,0.261 -2.321,21.561 2.568,-0.045 12.087,-9.936 C -0.888,10.34 0.141,8.099 0.1,5.75 Z" /></g><g
           transform="translate(138.8447,198.2767)"
           id="g132"><path
             id="path134"
             style="fill:#3d4b7a;fill-opacity:1;fill-rule:nonzero;stroke:none"
             d="m 0,0 c -0.018,-1.01 -0.026,-1.514 -0.043,-2.523 -2.933,0.693 -4.491,0.701 -7.414,0.055 0.018,1.02 0.026,1.53 0.044,2.549 C -4.484,0.642 -2.935,0.629 0,0" /></g><g
           transform="translate(139.123,214.4436)"
           id="g136"><path
             id="path138"
             style="fill:#0ec9bb;fill-opacity:1;fill-rule:nonzero;stroke:none"
             d="m 0,0 c -0.093,-5.389 -0.186,-10.778 -0.278,-16.167 -2.935,0.629 -4.485,0.642 -7.413,0.081 0.092,5.409 0.186,10.818 0.281,16.228 0.02,1.202 0.611,2.335 1.593,3.029 0.338,0.241 0.508,0.36 0.847,0.599 0.41,0.289 0.895,0.423 1.374,0.408 C -3.139,4.163 -2.69,4.01 -2.313,3.724 -1.98,3.473 -1.814,3.347 -1.482,3.094 -0.529,2.363 0.021,1.205 0,0" /></g><path
           id="path140"
           style="fill:#d6d6d6;fill-opacity:1;fill-rule:nonzero;stroke:none"
           d="M 117.455,86.03 H 102.01 v 103.974 h 15.445 z" /><g
           transform="translate(111.4364,97.2371)"
           id="g142"><path
             id="path144"
             style="fill:#ffcc00;fill-opacity:1;fill-rule:nonzero;stroke:none"
             d="M 0,0 C 0.465,0 0.897,-0.05 1.301,-0.14 V 90.715 H -6.424 V -3.317 c 0.559,0.304 1.178,0.496 1.809,0.604 C -3.817,-1.156 -2.282,0 0,0" /></g><g
           transform="translate(101.0595,184.9095)"
           id="g146"><path
             id="path148"
             style="fill:#ffcc00;fill-opacity:1;fill-rule:nonzero;stroke:none"
             d="m 0,0 c 0.585,-7.106 4.438,-21.829 7.987,-21.767 3.548,0.062 6.889,14.909 7.227,22.031 C 15.598,8.369 17.529,8.34 7.468,8.166 -2.595,7.991 -0.666,8.087 0,0" /></g><g
           transform="translate(104.037,183.5237)"
           id="g150"><path
             id="path152"
             style="fill:#fff000;fill-opacity:1;fill-rule:nonzero;stroke:none"
             d="M 0,0 C 0.342,-3.436 2.636,-8.769 4.807,-8.731 6.979,-8.694 9.086,-3.284 9.309,0.161 9.562,4.082 10.712,5.849 4.556,5.742 -1.601,5.635 -0.389,3.909 0,0" /></g><g
           transform="translate(100.0878,187.9524)"
           id="g154"><path
             id="path156"
             style="fill:#0ec9bb;fill-opacity:1;fill-rule:nonzero;stroke:none"
             d="M 0,0 C 0,0 2.3,1.171 8.481,1.171 14.24,1.171 17.574,0 17.574,0 L 20.5,9.508 H -2.926 Z" /></g><g
           transform="translate(86.5224,248.2283)"
           id="g158"><path
             id="path160"
             style="fill:#d6d6d6;fill-opacity:1;fill-rule:nonzero;stroke:none"
             d="m 0,0 c 0.389,-12.174 2.361,-35.241 6.149,-46.811 0.605,-1.849 1.259,-3.693 1.957,-5.518 0.507,-1.318 0.832,-2.046 0.832,-2.046 8.716,0.939 16.97,0.944 25.696,-0.005 0,0 0.32,0.733 0.826,2.051 0.724,1.884 1.397,3.783 2.022,5.701 C 41.23,-35.123 43.178,-12.09 43.566,0 43.714,4.663 43.055,10.029 41.604,14.516 38.599,23.802 31.599,31.756 21.786,33.812 12.243,31.786 4.673,23.581 1.963,14.511 0.64,10.093 -0.147,4.663 0,0" /></g><g
           transform="translate(92.6718,201.4178)"
           id="g162"><path
             id="path164"
             style="fill:#d6d6d6;fill-opacity:1;fill-rule:nonzero;stroke:none"
             d="m 0,0 c 0.604,-1.849 1.259,-3.694 1.957,-5.519 0.507,-1.318 0.831,-2.046 0.831,-2.046 8.717,0.94 16.971,0.944 25.696,-0.005 0,0 0.321,0.733 0.827,2.051 0.723,1.884 1.397,3.783 2.022,5.701 C 22.13,1.427 9.296,1.368 0,0" /></g><g
           transform="translate(98.953,247.1043)"
           id="g166"><path
             id="path168"
             style="fill:#0ec9bb;fill-opacity:1;fill-rule:nonzero;stroke:none"
             d="m 0,0 c 0.09,-5.166 4.351,-9.281 9.516,-9.191 5.166,0.09 9.281,4.35 9.191,9.516 -0.09,5.166 -4.35,9.28 -9.516,9.191 C 4.025,9.426 -0.09,5.166 0,0" /></g><g
           transform="translate(102.3866,247.2601)"
           id="g170"><path
             id="path172"
             style="fill:#55beea;fill-opacity:1;fill-rule:nonzero;stroke:none"
             d="m 0,0 c 0.058,-3.269 2.753,-5.872 6.021,-5.815 3.269,0.056 5.873,2.752 5.816,6.021 C 11.779,3.474 9.084,6.077 5.815,6.021 2.547,5.964 -0.057,3.269 0,0" /></g><g
           id="g174"><g
             id="g176" /><g
             id="g188"><g
               style="opacity:0.21000701"
               id="g186"
               clip-path="url(#clipPath180)"><g
                 id="g184"
                 transform="translate(110.2714,241.3645)"><path
                   id="path182"
                   style="fill:#ffffff;fill-opacity:1;fill-rule:nonzero;stroke:none"
                   d="M 0,0 4.057,0.07 -0.508,12.056 -4.564,11.985 Z" /></g></g></g></g><g
           id="g190"><g
             id="g192" /><g
             id="g204"><g
               style="opacity:0.21000701"
               id="g202"
               clip-path="url(#clipPath196)"><g
                 id="g200"
                 transform="translate(106.8466,241.305)"><path
                   id="path198"
                   style="fill:#ffffff;fill-opacity:1;fill-rule:nonzero;stroke:none"
                   d="M 0,0 2.028,0.035 -2.536,12.021 -4.564,11.986 Z" /></g></g></g></g><g
           transform="translate(102.3886,247.1644)"
           id="g206"><path
             id="path208"
             style="fill:#0ec9bb;fill-opacity:1;fill-rule:nonzero;stroke:none"
             d="M 0,0 C -0.057,3.268 2.547,5.964 5.815,6.021 9.084,6.077 11.779,3.474 11.836,0.205 11.893,-3.063 9.289,-5.759 6.021,-5.815 2.752,-5.872 0.057,-3.269 0,0 m -3.436,-0.06 c 0.09,-5.166 4.351,-9.281 9.516,-9.191 5.166,0.09 9.281,4.35 9.191,9.516 C 15.182,5.431 10.922,9.545 5.756,9.456 0.59,9.366 -3.525,5.106 -3.436,-0.06" /></g><g
           transform="translate(105.1239,201.347)"
           id="g210"><path
             id="path212"
             style="fill:#eec871;fill-opacity:1;fill-rule:nonzero;stroke:none"
             d="M 0,0 C 0.245,-3.4 1.818,-10.448 3.249,-10.423 4.68,-10.398 6.007,-3.3 6.134,0.107 6.278,3.984 7.058,3.967 3,3.897 -1.057,3.827 -0.279,3.87 0,0" /></g><g
           transform="translate(106.3261,200.6805)"
           id="g214"><path
             id="path216"
             style="fill:#fff000;fill-opacity:1;fill-rule:nonzero;stroke:none"
             d="M 0,0 C 0.143,-1.644 1.074,-4.198 1.95,-4.184 2.825,-4.168 3.668,-1.583 3.753,0.065 3.851,1.94 4.312,2.784 1.83,2.741 -0.652,2.698 -0.162,1.871 0,0" /></g><g
           transform="translate(104.412,205.5721)"
           id="g218"><path
             id="path220"
             style="fill:#0ec9bb;fill-opacity:1;fill-rule:nonzero;stroke:none"
             d="M 0,0 0.045,-2.54 7.454,-2.411 7.41,0.129 Z" /></g><g
           transform="translate(104.1308,221.7962)"
           id="g222"><path
             id="path224"
             style="fill:#0ec9bb;fill-opacity:1;fill-rule:nonzero;stroke:none"
             d="m 0,0 0.281,-16.224 7.41,0.129 L 7.41,0.129 C 7.389,1.334 6.798,2.457 5.817,3.156 L 4.97,3.762 C 4.56,4.057 4.075,4.194 3.597,4.178 3.139,4.163 2.69,4.006 2.313,3.716 L 1.482,3.081 C 0.53,2.348 -0.021,1.206 0,0" /></g><g
           transform="translate(88.4902,262.6307)"
           id="g226"><path
             id="path228"
             style="fill:#0ec9bb;fill-opacity:1;fill-rule:nonzero;stroke:none"
             d="M 0,0 C 21.112,11.136 39.253,0.231 39.631,0.005 34.274,17.093 19.818,19.41 19.818,19.41 19.818,19.41 5.356,17.093 0,0" /></g></g></g></g></svg>