<?xml version="1.0" encoding="UTF-8" standalone="no"?>
<svg
   xmlns:dc="http://purl.org/dc/elements/1.1/"
   xmlns:cc="http://creativecommons.org/ns#"
   xmlns:rdf="http://www.w3.org/1999/02/22-rdf-syntax-ns#"
   xmlns:svg="http://www.w3.org/2000/svg"
   xmlns="http://www.w3.org/2000/svg"
   viewBox="0 0 87.934135 87.934135"
   height="87.934135"
   width="87.934135"
   xml:space="preserve"
   id="svg2"
   version="1.1"><metadata
     id="metadata8"><rdf:RDF><cc:Work
         rdf:about=""><dc:format>image/svg+xml</dc:format><dc:type
           rdf:resource="http://purl.org/dc/dcmitype/StillImage" /></cc:Work></rdf:RDF></metadata><defs
     id="defs6"><radialGradient
       id="radialGradient50"
       spreadMethod="pad"
       gradientTransform="matrix(69.502312,0,0,-69.502312,11.106741,8.4825001)"
       gradientUnits="userSpaceOnUse"
       r="1"
       cy="0"
       cx="0"
       fy="0"
       fx="0"><stop
         id="stop24"
         offset="0"
         style="stop-opacity:1;stop-color:#e0b44c" /><stop
         id="stop26"
         offset="0.03473194"
         style="stop-opacity:1;stop-color:#e0b44c" /><stop
         id="stop28"
         offset="0.164179"
         style="stop-opacity:1;stop-color:#e18e4d" /><stop
         id="stop30"
         offset="0.20101586"
         style="stop-opacity:1;stop-color:#e18e4d" /><stop
         id="stop32"
         offset="0.338308"
         style="stop-opacity:1;stop-color:#db6a64" /><stop
         id="stop34"
         offset="0.38672231"
         style="stop-opacity:1;stop-color:#db6a64" /><stop
         id="stop36"
         offset="0.567164"
         style="stop-opacity:1;stop-color:#ce3b82" /><stop
         id="stop38"
         offset="0.56845151"
         style="stop-opacity:1;stop-color:#ce3b82" /><stop
         id="stop40"
         offset="0.606965"
         style="stop-opacity:1;stop-color:#cd3685" /><stop
         id="stop42"
         offset="0.83731383"
         style="stop-opacity:1;stop-color:#863594" /><stop
         id="stop44"
         offset="0.855721"
         style="stop-opacity:1;stop-color:#863594" /><stop
         id="stop46"
         offset="0.95659346"
         style="stop-opacity:1;stop-color:#863594" /><stop
         id="stop48"
         offset="1"
         style="stop-opacity:1;stop-color:#5441a6" /></radialGradient><clipPath
       id="clipPath60"
       clipPathUnits="userSpaceOnUse"><path
         id="path58"
         d="M 0,65.951 H 65.951 V 0 H 0 Z" /></clipPath><clipPath
       id="clipPath80"
       clipPathUnits="userSpaceOnUse"><path
         id="path78"
         d="M 2.56979,65.9003 H 52.9878 V 30.0955 H 2.56979 Z" /></clipPath><clipPath
       id="clipPath84"
       clipPathUnits="userSpaceOnUse"><path
         id="path82"
         d="M 52.071,57.012 C 48.744,63.508 34.613,69.07 21.139,63.81 7.666,58.55 0.141,45.998 3.278,37.963 6.415,29.927 19.881,27.677 33.355,32.938 c 13.473,5.26 22.648,16.396 18.716,24.074" /></clipPath><radialGradient
       id="radialGradient96"
       spreadMethod="pad"
       gradientTransform="matrix(46.330624,3.467962,-3.467962,-38.802975,38.601314,28.703079)"
       gradientUnits="userSpaceOnUse"
       r="1"
       cy="0"
       cx="0"
       fy="0"
       fx="0"><stop
         id="stop90"
         offset="0"
         style="stop-opacity:1;stop-color:#ffffff" /><stop
         id="stop92"
         offset="0.39427823"
         style="stop-opacity:0;stop-color:#ffffff" /><stop
         id="stop94"
         offset="1"
         style="stop-opacity:0;stop-color:#ffffff" /></radialGradient><mask
       id="mask98"
       height="1"
       width="1"
       y="0"
       x="0"
       maskUnits="userSpaceOnUse"><g
         id="g108"><g
           id="g106"><g
             id="g104"><g
               id="g102"><path
                 id="path100"
                 style="fill:url(#radialGradient96);stroke:none"
                 d="M -32768,32767 H 32767 V -32768 H -32768 Z" /></g></g></g></g></mask><radialGradient
       id="radialGradient116"
       spreadMethod="pad"
       gradientTransform="matrix(46.330624,3.467962,-3.467962,-38.802975,38.601314,28.703079)"
       gradientUnits="userSpaceOnUse"
       r="1"
       cy="0"
       cx="0"
       fy="0"
       fx="0"><stop
         id="stop110"
         offset="0"
         style="stop-opacity:1;stop-color:#ffffff" /><stop
         id="stop112"
         offset="0.39427823"
         style="stop-opacity:1;stop-color:#ffffff" /><stop
         id="stop114"
         offset="1"
         style="stop-opacity:1;stop-color:#ffffff" /></radialGradient><clipPath
       id="clipPath142"
       clipPathUnits="userSpaceOnUse"><path
         id="path140"
         d="M 3.25929,47.4483 H 65.9506 V 0.050293 H 3.25929 Z" /></clipPath><clipPath
       id="clipPath146"
       clipPathUnits="userSpaceOnUse"><path
         id="path144"
         d="m 62.634,47.448 c 0.672,-2.469 1.034,-5.051 1.034,-7.71 0,-17.51 -15.47,-31.704 -34.554,-31.704 -10.29,0 -19.524,4.132 -25.855,10.68 C 8.588,7.67 19.891,0.05 32.975,0.05 c 18.212,0 32.975,14.764 32.975,32.976 0,5.172 -1.193,10.065 -3.316,14.422" /></clipPath><radialGradient
       id="radialGradient156"
       spreadMethod="pad"
       gradientTransform="matrix(42.754318,17.700676,10.922822,-26.383047,36.815258,20.275927)"
       gradientUnits="userSpaceOnUse"
       r="1"
       cy="0"
       cx="0"
       fy="0"
       fx="0"><stop
         id="stop152"
         offset="0"
         style="stop-opacity:1;stop-color:#ffffff" /><stop
         id="stop154"
         offset="1"
         style="stop-opacity:0;stop-color:#ffffff" /></radialGradient><mask
       id="mask158"
       height="1"
       width="1"
       y="0"
       x="0"
       maskUnits="userSpaceOnUse"><g
         id="g168"><g
           id="g166"><g
             id="g164"><g
               id="g162"><path
                 id="path160"
                 style="fill:url(#radialGradient156);stroke:none"
                 d="M -32768,32767 H 32767 V -32768 H -32768 Z" /></g></g></g></g></mask><radialGradient
       id="radialGradient174"
       spreadMethod="pad"
       gradientTransform="matrix(42.754318,17.700676,10.922822,-26.383047,36.815258,20.275927)"
       gradientUnits="userSpaceOnUse"
       r="1"
       cy="0"
       cx="0"
       fy="0"
       fx="0"><stop
         id="stop170"
         offset="0"
         style="stop-opacity:1;stop-color:#1d1d1b" /><stop
         id="stop172"
         offset="1"
         style="stop-opacity:1;stop-color:#ffffff" /></radialGradient></defs><g
     transform="matrix(1.3333333,0,0,-1.3333333,0,87.934133)"
     id="g10"><g
       id="g12"><g
         id="g14"><g
           id="g20"><g
             id="g22"><path
               id="path52"
               style="fill:url(#radialGradient50);stroke:none"
               d="M 32.975,65.95 C 14.764,65.95 0,51.187 0,32.975 v 0 C 0,14.764 14.764,0 32.975,0 V 0 C 51.187,0 65.95,14.764 65.95,32.975 v 0 c 0,18.212 -14.763,32.975 -32.975,32.975 z" /></g></g></g></g><g
       id="g54"><g
         clip-path="url(#clipPath60)"
         id="g56"><g
           transform="translate(33.0091,51.3491)"
           id="g62"><path
             id="path64"
             style="fill:#ffffff;fill-opacity:1;fill-rule:nonzero;stroke:none"
             d="m 0,0 c -5.177,0 -5.827,-0.021 -7.86,-0.114 -2.029,-0.093 -3.415,-0.415 -4.628,-0.886 -1.254,-0.488 -2.317,-1.14 -3.376,-2.2 -1.06,-1.059 -1.712,-2.123 -2.199,-3.376 -0.472,-1.213 -0.794,-2.599 -0.887,-4.628 -0.092,-2.034 -0.114,-2.683 -0.114,-7.86 0,-5.178 0.022,-5.828 0.114,-7.861 0.093,-2.029 0.415,-3.415 0.887,-4.627 0.487,-1.254 1.139,-2.317 2.199,-3.377 1.059,-1.06 2.122,-1.712 3.376,-2.199 1.213,-0.472 2.599,-0.794 4.628,-0.887 2.033,-0.092 2.683,-0.114 7.86,-0.114 5.178,0 5.827,0.022 7.86,0.114 2.03,0.093 3.415,0.415 4.628,0.887 1.254,0.487 2.317,1.139 3.377,2.199 1.06,1.06 1.712,2.123 2.199,3.377 0.471,1.212 0.793,2.598 0.886,4.627 0.093,2.033 0.115,2.683 0.115,7.861 0,5.177 -0.022,5.826 -0.115,7.86 -0.093,2.029 -0.415,3.415 -0.886,4.628 -0.487,1.253 -1.139,2.317 -2.199,3.376 -1.06,1.06 -2.123,1.712 -3.377,2.2 C 11.275,-0.529 9.89,-0.207 7.86,-0.114 5.827,-0.021 5.178,0 0,0 m 0,-3.435 c 5.091,0 5.694,-0.019 7.704,-0.111 1.859,-0.085 2.868,-0.395 3.54,-0.657 0.89,-0.345 1.525,-0.758 2.192,-1.425 0.668,-0.668 1.081,-1.303 1.426,-2.193 0.261,-0.671 0.572,-1.681 0.657,-3.54 0.091,-2.01 0.111,-2.613 0.111,-7.703 0,-5.091 -0.02,-5.694 -0.111,-7.704 -0.085,-1.859 -0.396,-2.868 -0.657,-3.54 -0.345,-0.89 -0.758,-1.525 -1.426,-2.192 -0.667,-0.667 -1.302,-1.081 -2.192,-1.426 -0.672,-0.262 -1.681,-0.572 -3.54,-0.657 -2.01,-0.092 -2.613,-0.111 -7.704,-0.111 -5.091,0 -5.693,0.019 -7.704,0.111 -1.858,0.085 -2.868,0.395 -3.54,0.657 -0.889,0.345 -1.525,0.759 -2.192,1.426 -0.667,0.667 -1.08,1.302 -1.426,2.192 -0.261,0.672 -0.572,1.681 -0.656,3.54 -0.092,2.01 -0.111,2.613 -0.111,7.704 0,5.09 0.019,5.693 0.111,7.703 0.084,1.859 0.395,2.869 0.656,3.54 0.346,0.89 0.759,1.525 1.426,2.193 0.667,0.667 1.303,1.08 2.192,1.425 0.672,0.262 1.682,0.572 3.54,0.657 2.011,0.092 2.614,0.111 7.704,0.111" /></g><g
           transform="translate(33.0091,25.9296)"
           id="g66"><path
             id="path68"
             style="fill:#ffffff;fill-opacity:1;fill-rule:nonzero;stroke:none"
             d="m 0,0 c -3.509,0 -6.354,2.845 -6.354,6.355 0,3.51 2.845,6.355 6.354,6.355 3.51,0 6.355,-2.845 6.355,-6.355 C 6.355,2.845 3.51,0 0,0 m 0,16.145 c -5.406,0 -9.79,-4.383 -9.79,-9.79 0,-5.407 4.384,-9.79 9.79,-9.79 5.407,0 9.79,4.383 9.79,9.79 0,5.407 -4.383,9.79 -9.79,9.79" /></g><g
           transform="translate(45.4739,42.4614)"
           id="g70"><path
             id="path72"
             style="fill:#ffffff;fill-opacity:1;fill-rule:nonzero;stroke:none"
             d="m 0,0 c 0,-1.263 -1.024,-2.288 -2.288,-2.288 -1.263,0 -2.288,1.025 -2.288,2.288 0,1.264 1.025,2.288 2.288,2.288 C -1.024,2.288 0,1.264 0,0" /></g><g
           id="g74"><g
             id="g76" /><g
             id="g134"><g
               id="g132"
               clip-path="url(#clipPath80)"><g
                 id="g130"><g
                   id="g128"
                   clip-path="url(#clipPath84)"><g
                     id="g126"><g
                       id="g118" /><g
                       id="g124"
                       mask="url(#mask98)"><g
                         id="g122"><path
                           id="path120"
                           style="fill:url(#radialGradient116);stroke:none"
                           d="M 52.071,57.012 C 48.744,63.508 34.613,69.07 21.139,63.81 7.666,58.55 0.141,45.998 3.278,37.963 6.415,29.927 19.881,27.677 33.355,32.938 c 13.473,5.26 22.648,16.396 18.716,24.074" /></g></g></g></g></g></g></g></g><g
           id="g136"><g
             id="g138" /><g
             id="g192"><g
               id="g190"
               clip-path="url(#clipPath142)"><g
                 id="g188"><g
                   id="g186"
                   clip-path="url(#clipPath146)"><g
                     id="g184"><g
                       id="g176" /><g
                       id="g182"
                       mask="url(#mask158)"><g
                         id="g180"><path
                           id="path178"
                           style="fill:url(#radialGradient174);stroke:none"
                           d="m 62.634,47.448 c 0.672,-2.469 1.034,-5.051 1.034,-7.71 0,-17.51 -15.47,-31.704 -34.554,-31.704 -10.29,0 -19.524,4.132 -25.855,10.68 C 8.588,7.67 19.891,0.05 32.975,0.05 c 18.212,0 32.975,14.764 32.975,32.976 0,5.172 -1.193,10.065 -3.316,14.422" /></g></g></g></g></g></g></g></g></g></g></g></svg>