<?xml version="1.0" encoding="UTF-8" standalone="no"?>
<svg
   xmlns:dc="http://purl.org/dc/elements/1.1/"
   xmlns:cc="http://creativecommons.org/ns#"
   xmlns:rdf="http://www.w3.org/1999/02/22-rdf-syntax-ns#"
   xmlns:svg="http://www.w3.org/2000/svg"
   xmlns="http://www.w3.org/2000/svg"
   viewBox="0 0 87.934135 87.934265"
   height="87.934265"
   width="87.934135"
   xml:space="preserve"
   id="svg2"
   version="1.1"><metadata
     id="metadata8"><rdf:RDF><cc:Work
         rdf:about=""><dc:format>image/svg+xml</dc:format><dc:type
           rdf:resource="http://purl.org/dc/dcmitype/StillImage" /></cc:Work></rdf:RDF></metadata><defs
     id="defs6"><linearGradient
       id="linearGradient30"
       spreadMethod="pad"
       gradientTransform="matrix(0,-63.036205,-63.036205,0,32.9753,67.107872)"
       gradientUnits="userSpaceOnUse"
       y2="0"
       x2="1"
       y1="0"
       x1="0"><stop
         id="stop24"
         offset="0"
         style="stop-opacity:1;stop-color:#e32a2d" /><stop
         id="stop26"
         offset="0.21154923"
         style="stop-opacity:1;stop-color:#e32a2d" /><stop
         id="stop28"
         offset="1"
         style="stop-opacity:1;stop-color:#b10f1c" /></linearGradient><clipPath
       id="clipPath40"
       clipPathUnits="userSpaceOnUse"><path
         id="path38"
         d="M 0,65.951 H 65.951 V 0 H 0 Z" /></clipPath><clipPath
       id="clipPath52"
       clipPathUnits="userSpaceOnUse"><path
         id="path50"
         d="M 2.56979,65.8501 H 52.9878 V 30.0453 H 2.56979 Z" /></clipPath><clipPath
       id="clipPath56"
       clipPathUnits="userSpaceOnUse"><path
         id="path54"
         d="M 52.071,56.962 C 48.744,63.457 34.613,69.02 21.139,63.76 7.666,58.5 0.141,45.948 3.278,37.913 6.415,29.877 19.881,27.627 33.355,32.887 46.828,38.148 56.003,49.284 52.071,56.962" /></clipPath><radialGradient
       id="radialGradient66"
       spreadMethod="pad"
       gradientTransform="matrix(46.330624,3.467962,-3.467962,-38.802975,38.601318,28.652901)"
       gradientUnits="userSpaceOnUse"
       r="1"
       cy="0"
       cx="0"
       fy="0"
       fx="0"><stop
         id="stop62"
         offset="0"
         style="stop-opacity:1;stop-color:#ffffff" /><stop
         id="stop64"
         offset="1"
         style="stop-opacity:0;stop-color:#ffffff" /></radialGradient><mask
       id="mask68"
       height="1"
       width="1"
       y="0"
       x="0"
       maskUnits="userSpaceOnUse"><g
         id="g78"><g
           id="g76"><g
             id="g74"><g
               id="g72"><path
                 id="path70"
                 style="fill:url(#radialGradient66);stroke:none"
                 d="M -32768,32767 H 32767 V -32768 H -32768 Z" /></g></g></g></g></mask><radialGradient
       id="radialGradient84"
       spreadMethod="pad"
       gradientTransform="matrix(46.330624,3.467962,-3.467962,-38.802975,38.601318,28.652901)"
       gradientUnits="userSpaceOnUse"
       r="1"
       cy="0"
       cx="0"
       fy="0"
       fx="0"><stop
         id="stop80"
         offset="0"
         style="stop-opacity:1;stop-color:#ffffff" /><stop
         id="stop82"
         offset="1"
         style="stop-opacity:1;stop-color:#1d1d1b" /></radialGradient><clipPath
       id="clipPath110"
       clipPathUnits="userSpaceOnUse"><path
         id="path108"
         d="M 3.25929,47.3981 H 65.9506 V 1.06812e-4 H 3.25929 Z" /></clipPath><clipPath
       id="clipPath114"
       clipPathUnits="userSpaceOnUse"><path
         id="path112"
         d="m 62.634,47.398 c 0.672,-2.469 1.034,-5.051 1.034,-7.71 0,-17.51 -15.47,-31.704 -34.554,-31.704 -10.29,0 -19.524,4.132 -25.855,10.68 C 8.588,7.62 19.891,0 32.975,0 51.187,0 65.95,14.764 65.95,32.975 c 0,5.173 -1.193,10.066 -3.316,14.423" /></clipPath><radialGradient
       id="radialGradient124"
       spreadMethod="pad"
       gradientTransform="matrix(42.754318,17.700676,10.922822,-26.383047,36.815258,20.225727)"
       gradientUnits="userSpaceOnUse"
       r="1"
       cy="0"
       cx="0"
       fy="0"
       fx="0"><stop
         id="stop120"
         offset="0"
         style="stop-opacity:1;stop-color:#ffffff" /><stop
         id="stop122"
         offset="1"
         style="stop-opacity:0;stop-color:#ffffff" /></radialGradient><mask
       id="mask126"
       height="1"
       width="1"
       y="0"
       x="0"
       maskUnits="userSpaceOnUse"><g
         id="g136"><g
           id="g134"><g
             id="g132"><g
               id="g130"><path
                 id="path128"
                 style="fill:url(#radialGradient124);stroke:none"
                 d="M -32768,32767 H 32767 V -32768 H -32768 Z" /></g></g></g></g></mask><radialGradient
       id="radialGradient142"
       spreadMethod="pad"
       gradientTransform="matrix(42.754318,17.700676,10.922822,-26.383047,36.815258,20.225727)"
       gradientUnits="userSpaceOnUse"
       r="1"
       cy="0"
       cx="0"
       fy="0"
       fx="0"><stop
         id="stop138"
         offset="0"
         style="stop-opacity:1;stop-color:#1d1d1b" /><stop
         id="stop140"
         offset="1"
         style="stop-opacity:1;stop-color:#ffffff" /></radialGradient></defs><g
     transform="matrix(1.3333333,0,0,-1.3333333,0,87.934267)"
     id="g10"><g
       id="g12"><g
         id="g14"><g
           id="g20"><g
             id="g22"><path
               id="path32"
               style="fill:url(#linearGradient30);stroke:none"
               d="M 32.975,65.951 C 14.764,65.951 0,51.188 0,32.975 v 0 C 0,14.764 14.764,0 32.975,0 V 0 C 51.187,0 65.95,14.764 65.95,32.975 v 0 c 0,18.213 -14.763,32.976 -32.975,32.976 z" /></g></g></g></g><g
       id="g34"><g
         clip-path="url(#clipPath40)"
         id="g36"><g
           transform="translate(28.573,25.5289)"
           id="g42"><path
             id="path44"
             style="fill:#ffffff;fill-opacity:1;fill-rule:evenodd;stroke:none"
             d="M 0,0 V 16.578 L 12.573,8.29 Z m 26.414,16.272 c 0,3.636 -2.945,6.582 -6.58,6.582 H -11.03 c -3.635,0 -6.58,-2.946 -6.58,-6.582 v -17.65 c 0,-3.636 2.945,-6.583 6.58,-6.583 h 30.864 c 3.635,0 6.58,2.947 6.58,6.583 z" /></g><g
           id="g46"><g
             id="g48" /><g
             id="g102"><g
               id="g100"
               clip-path="url(#clipPath52)"><g
                 id="g98"><g
                   id="g96"
                   clip-path="url(#clipPath56)"><g
                     id="g94"><g
                       id="g86" /><g
                       id="g92"
                       mask="url(#mask68)"><g
                         id="g90"><path
                           id="path88"
                           style="fill:url(#radialGradient84);stroke:none"
                           d="M 52.071,56.962 C 48.744,63.457 34.613,69.02 21.139,63.76 7.666,58.5 0.141,45.948 3.278,37.913 6.415,29.877 19.881,27.627 33.355,32.887 46.828,38.148 56.003,49.284 52.071,56.962" /></g></g></g></g></g></g></g></g><g
           id="g104"><g
             id="g106" /><g
             id="g160"><g
               id="g158"
               clip-path="url(#clipPath110)"><g
                 id="g156"><g
                   id="g154"
                   clip-path="url(#clipPath114)"><g
                     id="g152"><g
                       id="g144" /><g
                       id="g150"
                       mask="url(#mask126)"><g
                         id="g148"><path
                           id="path146"
                           style="fill:url(#radialGradient142);stroke:none"
                           d="m 62.634,47.398 c 0.672,-2.469 1.034,-5.051 1.034,-7.71 0,-17.51 -15.47,-31.704 -34.554,-31.704 -10.29,0 -19.524,4.132 -25.855,10.68 C 8.588,7.62 19.891,0 32.975,0 51.187,0 65.95,14.764 65.95,32.975 c 0,5.173 -1.193,10.066 -3.316,14.423" /></g></g></g></g></g></g></g></g></g></g></g></svg>